<svg id="Livello_1" data-name="Livello 1" xmlns="http://www.w3.org/2000/svg" viewBox="0 0 58.14 52.8">
  <defs>
    <style>
      .cls-1 {
        fill: #fff;
      }

      .cls-2 {
        fill: #c62c47;
      }
    </style>
  </defs>
  <title>ALICE</title>
  <g>
    <path class="cls-1" d="M55.35,49.64V49c0-.33,0-.67,0-1s0-.75,0-1.13V45.7a10.61,10.61,0,0,1,0-1.13,5.46,5.46,0,0,0,0-.57c0-.49,0-1-.06-1.45s0-.71,0-1.06,0-.46,0-.7,0-.66,0-1,0-.68,0-1a11.42,11.42,0,0,0,0-1.85,2.11,2.11,0,0,1,0-.35c0-.15,0-.3,0-.45l0-.68v-.83c0-.37,0-1.07,0-1.38a.09.09,0,0,0-.14-.08c-.27.15-.85.48-1.14.67a.37.37,0,0,0-.17.32c0,.14,0,.29,0,.44,0,.41,0,.81,0,1.22s0,.78,0,1.17,0,.57,0,.85,0,.44,0,.66c0,.53,0,1.07,0,1.6,0,.33,0,.66,0,1s0,1,0,1.43,0,1,0,1.36,0,.9,0,1.35a7.22,7.22,0,0,0,0,1.23,4,4,0,0,1,0,1.25,5.78,5.78,0,0,0,0,1.1c.05.72-.06,1.44,0,2.17a.52.52,0,0,1,0,.11h-.08l-1.49,0c-.39,0-.79,0-1.19,0H46.91l-1.75,0c-.24,0-.48,0-.71,0l-2.28,0-1.76,0h-1c-.41,0-.82,0-1.23,0s-.62,0-.93,0l-1.06,0c-.55,0-1.11,0-1.67,0-.88,0-1.75,0-2.63,0-.36,0-.72,0-1.07,0s-.77,0-1.15,0c-.82,0-1.65,0-2.48,0H25.74c-.54,0-1.08,0-1.62,0H22l-1.69,0-2,0H16.82c-.7,0-1.39,0-2.09,0l-2.88,0c-.57,0-1.14,0-1.71,0H8.75c-.33,0-.66,0-1,0s-.91,0-1.37,0l-1.62,0H4.39a2.42,2.42,0,0,1,0-.27c0-.37,0-.74,0-1.1s0-.61,0-.91c0-.56,0-1.12,0-1.67,0-1,0-6.24,0-7.27,0-.58,0-1.16,0-1.74s0-1.11,0-1.67,0-1.12,0-1.63A.19.19,0,0,0,4,34.74l-.7,1a2.08,2.08,0,0,0-.38,1.15c0,.18,0,.36,0,.48v.84c0,.25,0,.5,0,.75s0,.37,0,.55c0,.35,0,.69,0,1v5.91c0,.22,0,.44,0,.67s0,.63,0,.95c0,.54,0,1.07-.05,1.61s0,1,0,1.54v.12c0,.31,0,.61-.06.91a.57.57,0,0,0,.2.49.23.23,0,0,0,.16.06h.37l1,0,1.08,0,.91,0c.39,0,.78,0,1.16,0,.73,0,1.45,0,2.17,0,.45,0,.89,0,1.34,0l1.52,0H14.5l1.16,0h1.55l2.25,0,2.23,0c.82,0,1.64,0,2.46,0,.31,0,.62,0,.93,0a4.71,4.71,0,0,0,.84,0l.43,0h2.42l3.37,0,1.22,0h1.13l1.36,0h2.23c.73,0,1.45,0,2.18,0l.66,0c.39,0,.77,0,1.16,0l1.84,0h3.47l3.4,0c.57,0,1.13,0,1.7,0,.84,0,1.68,0,2.52,0a.23.23,0,0,0,.27-.2.47.47,0,0,0,0-.17c0-.22,0-.45,0-.68a7.06,7.06,0,0,0,0-.8C55.36,50.43,55.35,50,55.35,49.64Z"/>
    <path class="cls-1" d="M55.38,12.22c0-.27,0-.54,0-.81s0-.46,0-.7c0-.4,0-.81,0-1.21,0-.65,0-7.88,0-8.53a4.47,4.47,0,0,0,0-.73A.26.26,0,0,0,55,0h-.15l-.5,0h-.84c-.57,0-1.14,0-1.71,0S50.58.09,50,.11s-1.4,0-2.1,0c-.48,0-1,0-1.45,0-.71,0-1.43,0-2.14,0s-1.44,0-2.15,0H41.2c-.19,0-.37,0-.56,0h-1.8l-1.9,0H35.07l-1.94,0c-.79,0-1.57,0-2.36,0-.39,0-.79,0-1.18,0-.82,0-1.65,0-2.47-.06-.61,0-1.22,0-1.82,0s-.93,0-1.4,0H22.51l-1,0c-.58,0-1.15,0-1.73,0s-1.08,0-1.61,0c-.25,0-.5,0-.76,0-.53,0-1.07.06-1.6.07s-1,0-1.57,0h-.79L12,.19c-.33,0-.67,0-1,0-.54,0-1.08,0-1.61,0-.27,0-.54,0-.81,0H6.44l-1,0L5,.23A5.64,5.64,0,0,1,4,.22a3.46,3.46,0,0,0-.91,0c-.2,0-.29.14-.28.33s0,.52,0,.78,0,.26,0,.39c0,.51,0,7.15,0,7.66,0,.32,0,.64,0,.95s0,.81,0,1.21c0,.55,0,1.11,0,1.66s0,.94,0,1.41,0,.92,0,1.39,0,.8,0,1.2,0,.67,0,1,0,.91,0,1.37c0,.15,0,2.27,0,4.49a.23.23,0,0,0,.3.22l.85-.27h0a.38.38,0,0,0,.28-.36c0-2.37,0-4.66,0-5s0-.68,0-1,0-.67,0-1c0-.63,0-1.25,0-1.88,0-.2,0-.41,0-.61s0-.65,0-1,0-.68,0-1c0-.62,0-1.24,0-1.86s0-1.13,0-1.69c0-.27.07-6.65.09-6.93L5,1.7h1.6c.51,0,1-.06,1.55-.05l1,0c.25,0,.5,0,.74,0l1.83.05c.72,0,1.44.05,2.16.05s1.19,0,1.79,0L17,1.7l1.1,0c.34,0,.89,0,1.23,0l1.24.07a7.48,7.48,0,0,0,.82,0c.41,0,.81-.06,1.22-.07.59,0,1.19,0,1.78,0h.75l.31,0h1.17l1.82.06,1,0c.45,0,.9-.06,1.34-.06.66,0,1.31,0,2,.06.29,0,.58,0,.87,0H38.5c.41,0,.82,0,1.23,0H41l1.45,0,.91,0c.2,0,.39,0,.58,0,.57,0,1.14-.07,1.71-.08s1.06,0,1.59,0l2.09.07,2.23.07c.63,0,1.26,0,1.88,0h.33c0,.21,0,7,0,7.2v1.6c0,.28,0,.56,0,.84s0,.65,0,1c0,.52,0,1.05,0,1.57s0,.78,0,1.16c0,.6,0,1.2,0,1.8s0,1.22,0,1.84c0,.11,0,.3,0,.43a.26.26,0,0,0,.13.19,4.22,4.22,0,0,1,1.22.82.12.12,0,0,0,.21-.09c0-.37,0-.74,0-1.11l0-2.77c0-.47,0-.94,0-1.41a10.34,10.34,0,0,1,.05-1.57A9.2,9.2,0,0,0,55.38,12.22Z"/>
    <path class="cls-1" d="M10.32,40.33v.78H9.89V39h.87c.51,0,.78.26.78.67s-.27.68-.78.68Zm0-1v.57h.43c.23,0,.35-.09.35-.29s-.12-.28-.35-.28Z"/>
    <path class="cls-1" d="M13.24,41.11h-.42V39h.42Z"/>
    <path class="cls-1" d="M16.22,39.31l-1.11,1.41h1.11v.39H14.54v-.33l1.11-1.41h-1.1V39h1.67Z"/>
    <path class="cls-1" d="M19.09,39.31,18,40.72h1.11v.39H17.42v-.33l1.11-1.41H17.42V39h1.67Z"/>
    <path class="cls-1" d="M22.36,41.11h-.45l-.19-.5h-.91l-.18.5h-.45L21,39h.52ZM21,40.22h.62l-.31-.82Z"/>
    <path class="cls-1" d="M27.11,41.11h-.46l-.19-.5h-.9l-.19.5h-.44L25.76,39h.51Zm-1.41-.89h.62L26,39.4Z"/>
    <path class="cls-1" d="M29.85,41.11H28.29V39h.43v1.73h1.13Z"/>
    <path class="cls-1" d="M34.18,39.37h-.66v1.74h-.43V39.37h-.66V39h1.75Z"/>
    <path class="cls-1" d="M37.16,41.11h-.45l-.19-.5h-.91l-.18.5H35L35.81,39h.52Zm-1.4-.89h.62l-.31-.82Z"/>
    <path class="cls-1" d="M40.09,39.26l-.31.3a.7.7,0,0,0-.52-.22.71.71,0,0,0,0,1.41.54.54,0,0,0,.6-.47h-.54v-.35h1a.49.49,0,0,1,0,.12,1,1,0,0,1-1,1.1,1.11,1.11,0,1,1,0-2.21A1.11,1.11,0,0,1,40.09,39.26Z"/>
    <path class="cls-1" d="M43.16,41.11H41.6V39H42v1.73h1.13Z"/>
    <path class="cls-1" d="M44.79,41.11h-.43V39h.43Z"/>
    <path class="cls-1" d="M48.32,40a1.12,1.12,0,1,1-1.12-1.1A1.07,1.07,0,0,1,48.32,40Zm-1.79,0a.68.68,0,1,0,.67-.69A.65.65,0,0,0,46.53,40Z"/>
    <g>
      <path class="cls-1" d="M57.73,26.81l-.8-.43a.64.64,0,0,0-.81.16c-2,2.59-4.26,4.47-7.53,4.56a.15.15,0,0,1-.06-.28c2.75-1.19,5.17-2.7,6.22-5.74.53-1.52.78-3.19-.72-4.33S51,20.06,49.61,21a10.66,10.66,0,0,0-4.53,6.12,1.61,1.61,0,0,1-.63.88,43,43,0,0,1-5.11,3.33c-1.64.85-3-.19-2.7-1.78a10.5,10.5,0,0,1,4-6.53.24.24,0,0,1,.11-.06.6.6,0,0,1,.74.82l-.48,1a.6.6,0,0,0,.24.77l1.14.68a.73.73,0,0,0,1-.22c.1-.15.19-.29.27-.43.82-1.54,1.79-3.32.28-4.71s-3.43-.65-4.92.42a11.51,11.51,0,0,0-4,4.67,7.1,7.1,0,0,1-1,1.64l-2.34,2.79c-.71.35-.83,0-.76-.34l2.7-7.82a1,1,0,0,0-.37-1.11L32,20.24a.48.48,0,0,0-.72.26c-.17.57-.33,1.13-.5,1.68a6,6,0,0,1-1.13,2.09c-1.65,2-4.13,5-5.24,6.35a.52.52,0,0,1-.68.11.36.36,0,0,1-.15-.39C24.7,25,27.29,20.13,29.29,14.87a.47.47,0,0,0-.24-.57l-1.7-.72a.4.4,0,0,0-.53.22c-1.8,4.6-3.57,9-5.18,13.38a20.72,20.72,0,0,0-1.06,5c-.21,2.16,1,3,2.94,2a13.69,13.69,0,0,0,5.2-5.1c-.2.77-.38,1.55-.54,2.33-.5,2.42,1.05,3.3,3.23,2.05a12.57,12.57,0,0,0,2.19-1.6.46.46,0,0,1,.74.17c.55,1.47,1.86,2.2,3.88,1.88a12.76,12.76,0,0,0,6.05-2.48.31.31,0,0,1,.49.17c.4,1.6,1.71,2.42,3.66,2.29,4.23-.28,7.26-2.44,9.59-5.9A.81.81,0,0,0,57.73,26.81Zm-10,.17a10.51,10.51,0,0,1,3-3.69,1.19,1.19,0,0,1,.63-.24,1,1,0,0,1,1.07.9,1.32,1.32,0,0,1-.13.64,7.37,7.37,0,0,1-3.05,3.28c-.3.15-1.16.24-1.4,0h0A.73.73,0,0,1,47.72,27Z"/>
      <path class="cls-1" d="M24.44,12.44c-.79-.87-1.41-.26-2.1.12-4.59,2.56-8.41,6.09-12.16,9.7-1.39,1.33-2.55,2.81-4.7,3.33-.87.21-1.74.45-2.61.7A1.46,1.46,0,0,0,2,27c-.22.42-.45.84-.68,1.25,0,.08-.07.16-.11.23a.34.34,0,0,0,.41.47c.87-.3,1.66-.66,2.51-1,.29-.15.44-.1.19.26C2.58,30.43,1.71,31.42,0,33.58c.49,1.3,1.2,1.52,2,1.16.33-.45.68-.88,1-1.31C4,32.27,4,32.27,4.87,31.2a8.25,8.25,0,0,1,.79-.89l.47-.52a9.84,9.84,0,0,1,2.92-2.45A3.39,3.39,0,0,1,9.71,27l.12,0,.11,0a2.54,2.54,0,0,1,.43-.12,21.09,21.09,0,0,1,4.29-.43,1,1,0,0,1,1.05,1.1c-.18,2.07-.36,4.11-.54,6.2a.61.61,0,0,0,.67.66l.95-.09a.86.86,0,0,0,.77-.75c.06-.46.11-.92.16-1.37A33.62,33.62,0,0,1,20.55,22a63.06,63.06,0,0,1,4-7.28C25.09,13.79,25.15,13.21,24.44,12.44Zm-7.36,11c-.11.21-.6.27-.92.31-1.42.16-2.85.28-4.27.42-.19,0-.53.11-.57,0l8.81-7.55.32.24C19.33,19.09,18.24,21.31,17.08,23.48Z"/>
      <path class="cls-2" d="M37.89,14.91a2,2,0,0,0-.87-.52h0a1.94,1.94,0,0,0-2.19-.82,1.85,1.85,0,0,0-1.61,0,2,2,0,0,0-.6,3.13c.7,1,1.14,2.14-.09,2.73-.33.16-.31.3,0,.38,1.93.45,4.77-.7,5.63-2.56A2.11,2.11,0,0,0,37.89,14.91Z"/>
    </g>
  </g>
</svg>
